# xmcd
#
# Track frame offsets:
#	150
#	9510
#	28655
#	31560
#	49582
#	70530
#	84697
#	100245
#	116875
#	129655
#	147845
#	161915
#	180945
#	184112
#
# Disc length: 2775 seconds
#
# Revision: 2
# Processed by: cddbd v1.5.2PL0 Copyright (c) Steve Scherf et al.
# Submitted via: audiograbber 1.83.01
#
DISCID=b10ad50e
DTITLE=Domingo Presents - Behind The Doors Of The 13th Floor
DYEAR=1997
DGENRE=Hip-Hop
TTITLE0=Bamboo - Not The Ones To Sleep
TTITLE1=Godsons - Official
TTITLE2=Domingo - Interlude 1
TTITLE3=Sinz Of Reality - Life
TTITLE4=Ras Kass, Hurricane G., Diezel Don - Got You Too Hot
TTITLE5=Feel-X, J. Getm - One Time
TTITLE6=Bamboo - From The Get Up
TTITLE7=Godsons - Watch What You Say
TTITLE8=Big Ben - Unfinished Business
TTITLE9=Sinz Of Reality - Sinz Of Reality
TTITLE10=Feel-X, Eminem - Hustlers and Hardcore
TTITLE11=Maniac Men - Mecca
TTITLE12=Domingo - Interlude 2
TTITLE13=Krs-One, MC Shan, Godsons, Ras Kass, FT, Bamboo, Feel-X, Sinz Of Reali
TTITLE13=ty - Line Of Fire
EXTD=www.RapMusicGuide.com
EXTT0=
EXTT1=
EXTT2=
EXTT3=
EXTT4=
EXTT5=
EXTT6=
EXTT7=
EXTT8=
EXTT9=
EXTT10=
EXTT11=
EXTT12=
EXTT13=
PLAYORDER=
